<svg version="1.2" xmlns="http://www.w3.org/2000/svg" viewBox="0 0 173 159" width="173" height="159">
	<style>
		.s0 { fill: #ffffff } 
	</style>
	<path class="s0" d="m128.78 92.16c13.86-15.26 25.28-31.18 32.16-44.81 8.05-15.98 8.99-26.97 2.77-32.64-2.38-2.17-5.43-3.13-8.97-3.1q-0.17 0-0.36 0-0.44 0.01-0.89 0.05-8.79 0.53-22.12 8.92c-12.89 8.14-27.62 21.03-41.49 36.3q-4.44 4.9-8.52 9.85c-13.51-11.74-27.2-21.46-39.06-27.67-15.82-8.27-26.62-9.41-32.11-3.36-5.48 6.04-3.35 16.72 6.35 31.73 7.71 11.94 19.51 25.55 33.45 38.62q1.31-3.19 3.05-6.61 0.85-1.67 1.77-3.37c-12.28-11.79-22.6-23.82-29.42-34.38-8.43-13.05-7.86-18.38-7.4-18.89 0.14-0.16 0.75-0.37 1.93-0.37 2.62 0 8.04 1.04 17.5 5.99 11.27 5.9 24.37 15.24 37.38 26.58-7.05 9.3-12.89 18.42-17.06 26.69-8.06 15.97-8.99 26.96-2.78 32.63q3.47 3.17 8.83 3.17 3.65-0.01 8.17-1.47 0.08-0.03 0.17-0.06 0.9-0.29 1.84-0.65 0.64-0.24 1.3-0.52 0.24-0.1 0.49-0.2 2.82-1.18 5.95-2.87c5.43 3.69 10.68 6.88 15.62 9.46q13.73 7.19 22.36 7.19 6.27-0.01 9.74-3.82c5.49-6.04 3.35-16.72-6.35-31.74q-2.68-4.15-6-8.55c3.93-3.82 7.86-7.87 11.71-12.13zm-59.21 33.52c-4.68 1.63-6.89 1.19-7.33 0.79-0.49-0.45-1.23-3.05 0.55-9.07q4.62 3.85 9.19 7.33-1.29 0.55-2.4 0.95zm85.07-103.47c1 0 1.57 0.19 1.77 0.38 0.73 0.66 2 6.01-5.08 20.05-6.45 12.81-17.3 27.89-30.54 42.47q-5.16 5.69-10.4 10.83c-6.15-7.27-13.29-14.75-21.11-22.06q4.09-4.99 8.59-9.95c13.24-14.58 27.2-26.82 39.31-34.46 5.34-3.36 9.4-5.25 12.4-6.27 2.29-0.75 3.95-0.99 5.06-0.99zm-87.67 84.91q0.17-0.36 0.35-0.71c3.77-7.48 9.04-15.73 15.41-24.2 7.43 6.99 14.19 14.1 19.97 20.98-7.1 6.38-14.08 11.81-20.55 15.96-4.98-3.62-10.08-7.66-15.18-12.02zm54.65 30.33c-0.45 0.51-5.69 1.58-19.44-5.61-3.39-1.77-6.94-3.87-10.61-6.23 5.7-3.93 11.68-8.69 17.75-14.1q2.69 3.62 4.91 7.06c8.43 13.05 7.86 18.37 7.4 18.88z"/>
</svg>